<svg xmlns="http://www.w3.org/2000/svg"><symbol id="left-ear" viewBox="0 0 69.2 69.2"><circle cx="34.6" cy="34.6" r="34.6" fill="#673200"/><circle cx="37.1" cy="43.4" r="14.8" fill="#ffaaca"/></symbol><symbol id="right-eye" viewBox="0 0 18.6 18.6"><circle cx="9.3" cy="9.3" r="9.3"/></symbol><symbol id="left-eye" viewBox="0 0 18.6 18.6"><circle cx="9.3" cy="9.3" r="9.3"/></symbol><symbol id="face" viewBox="0 0 216.3 216.3"><circle cx="108.1" cy="108.1" r="108.1" fill="#673200"/><circle cx="108.1" cy="147.6" r="42.3" fill="#c65b00"/><path fill="#c65b00" d="M154.1 10.3A65.6 65.6 0 0 0 196 126.4a64.2 64.2 0 0 0 19.2-2.9 111.7 111.7 0 0 0 1.1-15.4 108.1 108.1 0 0 0-62.2-97.8zM0 108.1a111.7 111.7 0 0 0 1.1 15.4 64 64 0 0 0 19.1 2.9 65.7 65.7 0 0 0 65.7-65.7 65.3 65.3 0 0 0-23.8-50.4A108 108 0 0 0 0 108.1z"/><path fill="none" stroke="#000" stroke-linecap="round" stroke-linejoin="round" stroke-width="3" d="M81.4 162a37.2 37.2 0 0 0 52.7 0"/></symbol><symbol id="right-ear" viewBox="0 0 69.2 69.2"><circle cx="34.6" cy="34.6" r="34.6" fill="#673200"/><circle cx="32.1" cy="43.4" r="14.8" fill="#ffaaca"/></symbol><symbol id="nose" viewBox="0 0 25.9 25.9"><circle cx="13" cy="13" r="13" fill="#ffaaca"/></symbol></svg>